# xmcd
#
# Track frame offsets:
# 182
# 18102
# 37202
# 59130
# 69315
# 88787
# 107200
# 128692
# 150285
# 167990
# 184487
# 202515
# 218225
# 239755
# 258012
# 276402
# 293820
# 307647
#
# Disc length: 4373 seconds
#
#
# Revision: 25
# Processed by: cddbd v1.5.2PL0 Copyright (c) Steve Scherf et al.
# Submitted via: FreeRIP 2.80 
#
DISCID=02111312
DTITLE=ZZ Top - Greatest Hits
DYEAR=1992
DGENRE=Rock
TTITLE0=Gimme All Your Lovin'
TTITLE1=Sharp Dressed Man
TTITLE2=Rough Boy
TTITLE3=Tush
TTITLE4=My Head's In Mississippi
TTITLE5=Pearl Necklace
TTITLE6=I'm Bad, I'm Nationwide
TTITLE7=Viva Las Vegas
TTITLE8=Doubleback
TTITLE9=Gun Love
TTITLE10=Got Me Under Pressure
TTITLE11=Give It Up
TTITLE12=Cheap Sunglasses
TTITLE13=Sleeping Bag
TTITLE14=Planet Of Women
TTITLE15=La Grange
TTITLE16=Tube Snake Boogie
TTITLE17=Legs
EXTD=
EXTT0=
EXTT1=
EXTT2=
EXTT3=
EXTT4=
EXTT5=
EXTT6=
EXTT7=
EXTT8=
EXTT9=
EXTT10=
EXTT11=
EXTT12=
EXTT13=
EXTT14=
EXTT15=
EXTT16=
EXTT17=
PLAYORDER=
